<svg xmlns="http://www.w3.org/2000/svg" viewBox="0 0 948 214" width="948" height="214" role="img" aria-label="Tech stack: web, server, hardware">
<style>
  .mono { font-family: 'JetBrains Mono','Fira Code',Consolas,'Courier New',monospace; }
  .head { font-family: 'Arial Black','Segoe UI','Helvetica Neue',Arial,sans-serif; font-weight: 900; }
  @keyframes bar { 0%,70%,100% { opacity: 1 } 80% { opacity: .25 } }
  .bar { animation: bar 3.4s linear infinite }
  @media (prefers-reduced-motion: reduce) { * { animation: none !important } }
</style>
<rect width="948" height="214" rx="12" fill="#0b1118" stroke="#1b2634"/>
<g transform="translate(24,20)"><rect x="0" y="30" width="10" height="10" fill="#22d3ee"/><text class="head" x="22" y="41" font-size="17" fill="#e6edf3">Web</text><g><rect x="150" y="16" width="76.0" height="38" fill="#0e141c" stroke="#1f2c3b"/><rect class="bar" x="150" y="16" width="4" height="38" fill="#22d3ee" style="animation-delay:0.00s"/><text class="mono" x="170" y="40" font-size="14" font-weight="700" fill="#e6edf3" textLength="42.0" lengthAdjust="spacing">HTML5</text></g><g><rect x="238.0" y="16" width="67.6" height="38" fill="#0e141c" stroke="#1f2c3b"/><rect class="bar" x="238.0" y="16" width="4" height="38" fill="#22d3ee" style="animation-delay:0.23s"/><text class="mono" x="258.0" y="40" font-size="14" font-weight="700" fill="#e6edf3" textLength="33.6" lengthAdjust="spacing">CSS3</text></g><g><rect x="317.6" y="16" width="118.0" height="38" fill="#0e141c" stroke="#1f2c3b"/><rect class="bar" x="317.6" y="16" width="4" height="38" fill="#22d3ee" style="animation-delay:0.46s"/><text class="mono" x="337.6" y="40" font-size="14" font-weight="700" fill="#e6edf3" textLength="84.0" lengthAdjust="spacing">JavaScript</text></g><g><rect x="447.6" y="16" width="92.8" height="38" fill="#0e141c" stroke="#1f2c3b"/><rect class="bar" x="447.6" y="16" width="4" height="38" fill="#22d3ee" style="animation-delay:0.69s"/><text class="mono" x="467.6" y="40" font-size="14" font-weight="700" fill="#e6edf3" textLength="58.8" lengthAdjust="spacing">Node.js</text></g><g><rect x="552.4000000000001" y="16" width="76.0" height="38" fill="#0e141c" stroke="#1f2c3b"/><rect class="bar" x="552.4000000000001" y="16" width="4" height="38" fill="#22d3ee" style="animation-delay:0.92s"/><text class="mono" x="572.4000000000001" y="40" font-size="14" font-weight="700" fill="#e6edf3" textLength="42.0" lengthAdjust="spacing">React</text></g><g><rect x="640.4000000000001" y="16" width="134.8" height="38" fill="#0e141c" stroke="#1f2c3b"/><rect class="bar" x="640.4000000000001" y="16" width="4" height="38" fill="#22d3ee" style="animation-delay:1.15s"/><text class="mono" x="660.4000000000001" y="40" font-size="14" font-weight="700" fill="#e6edf3" textLength="100.8" lengthAdjust="spacing">Tailwind CSS</text></g><rect x="0" y="90" width="10" height="10" fill="#ff6a1a"/><text class="head" x="22" y="101" font-size="17" fill="#e6edf3">Server</text><g><rect x="150" y="76" width="76.0" height="38" fill="#0e141c" stroke="#1f2c3b"/><rect class="bar" x="150" y="76" width="4" height="38" fill="#ff6a1a" style="animation-delay:1.38s"/><text class="mono" x="170" y="100" font-size="14" font-weight="700" fill="#e6edf3" textLength="42.0" lengthAdjust="spacing">Linux</text></g><g><rect x="238.0" y="76" width="84.4" height="38" fill="#0e141c" stroke="#1f2c3b"/><rect class="bar" x="238.0" y="76" width="4" height="38" fill="#ff6a1a" style="animation-delay:1.61s"/><text class="mono" x="258.0" y="100" font-size="14" font-weight="700" fill="#e6edf3" textLength="50.4" lengthAdjust="spacing">Ubuntu</text></g><g><rect x="334.4" y="76" width="76.0" height="38" fill="#0e141c" stroke="#1f2c3b"/><rect class="bar" x="334.4" y="76" width="4" height="38" fill="#ff6a1a" style="animation-delay:1.84s"/><text class="mono" x="354.4" y="100" font-size="14" font-weight="700" fill="#e6edf3" textLength="42.0" lengthAdjust="spacing">Nginx</text></g><g><rect x="422.4" y="76" width="84.4" height="38" fill="#0e141c" stroke="#1f2c3b"/><rect class="bar" x="422.4" y="76" width="4" height="38" fill="#ff6a1a" style="animation-delay:2.07s"/><text class="mono" x="442.4" y="100" font-size="14" font-weight="700" fill="#e6edf3" textLength="50.4" lengthAdjust="spacing">Docker</text></g><g><rect x="518.8" y="76" width="59.2" height="38" fill="#0e141c" stroke="#1f2c3b"/><rect class="bar" x="518.8" y="76" width="4" height="38" fill="#ff6a1a" style="animation-delay:2.30s"/><text class="mono" x="538.8" y="100" font-size="14" font-weight="700" fill="#e6edf3" textLength="25.2" lengthAdjust="spacing">Git</text></g><g><rect x="590.0" y="76" width="84.4" height="38" fill="#0e141c" stroke="#1f2c3b"/><rect class="bar" x="590.0" y="76" width="4" height="38" fill="#ff6a1a" style="animation-delay:2.53s"/><text class="mono" x="610.0" y="100" font-size="14" font-weight="700" fill="#e6edf3" textLength="50.4" lengthAdjust="spacing">Vercel</text></g><rect x="0" y="150" width="10" height="10" fill="#e6edf3"/><text class="head" x="22" y="161" font-size="17" fill="#e6edf3">Hardware</text><g><rect x="150" y="136" width="101.2" height="38" fill="#0e141c" stroke="#1f2c3b"/><rect class="bar" x="150" y="136" width="4" height="38" fill="#e6edf3" style="animation-delay:2.76s"/><text class="mono" x="170" y="160" font-size="14" font-weight="700" fill="#e6edf3" textLength="67.2" lengthAdjust="spacing">Rakit PC</text></g><g><rect x="263.2" y="136" width="168.4" height="38" fill="#0e141c" stroke="#1f2c3b"/><rect class="bar" x="263.2" y="136" width="4" height="38" fill="#e6edf3" style="animation-delay:2.99s"/><text class="mono" x="283.2" y="160" font-size="14" font-weight="700" fill="#e6edf3" textLength="134.4" lengthAdjust="spacing">Upgrade komponen</text></g><g><rect x="443.6" y="136" width="160.0" height="38" fill="#0e141c" stroke="#1f2c3b"/><rect class="bar" x="443.6" y="136" width="4" height="38" fill="#e6edf3" style="animation-delay:3.22s"/><text class="mono" x="463.6" y="160" font-size="14" font-weight="700" fill="#e6edf3" textLength="126.0" lengthAdjust="spacing">Troubleshooting</text></g><g><rect x="615.6" y="136" width="101.2" height="38" fill="#0e141c" stroke="#1f2c3b"/><rect class="bar" x="615.6" y="136" width="4" height="38" fill="#e6edf3" style="animation-delay:3.45s"/><text class="mono" x="635.6" y="160" font-size="14" font-weight="700" fill="#e6edf3" textLength="67.2" lengthAdjust="spacing">Jaringan</text></g></g>
</svg>
